<mxfile host="app.diagrams.net" agent="Mozilla/5.0 (Windows NT 10.0; Win64; x64) AppleWebKit/537.36 (KHTML, like Gecko) Chrome/136.0.0.0 Safari/537.36" version="27.0.3">
  <diagram name="Page-1" id="hSJv2u5-FxoKJNzQkAV-">
    <mxGraphModel dx="3703" dy="2690" grid="1" gridSize="10" guides="1" tooltips="1" connect="1" arrows="1" fold="1" page="1" pageScale="1" pageWidth="850" pageHeight="1100" background="#E6E6E6" math="0" shadow="0">
      <root>
        <mxCell id="0" />
        <mxCell id="1" parent="0" />
        <mxCell id="GETbyj5P_YYwZANEKlcK-13" value="" style="edgeStyle=orthogonalEdgeStyle;rounded=0;orthogonalLoop=1;jettySize=auto;html=1;exitX=1;exitY=0.5;exitDx=0;exitDy=0;entryX=0;entryY=0.5;entryDx=0;entryDy=0;" parent="1" source="GETbyj5P_YYwZANEKlcK-50" target="GETbyj5P_YYwZANEKlcK-12" edge="1">
          <mxGeometry relative="1" as="geometry" />
        </mxCell>
        <mxCell id="GETbyj5P_YYwZANEKlcK-16" style="edgeStyle=orthogonalEdgeStyle;rounded=0;orthogonalLoop=1;jettySize=auto;html=1;exitX=1;exitY=0.5;exitDx=0;exitDy=0;entryX=0;entryY=0.5;entryDx=0;entryDy=0;" parent="1" source="GETbyj5P_YYwZANEKlcK-50" target="GETbyj5P_YYwZANEKlcK-14" edge="1">
          <mxGeometry relative="1" as="geometry" />
        </mxCell>
        <mxCell id="GETbyj5P_YYwZANEKlcK-17" style="edgeStyle=orthogonalEdgeStyle;rounded=0;orthogonalLoop=1;jettySize=auto;html=1;exitX=1;exitY=0.5;exitDx=0;exitDy=0;entryX=0;entryY=0.5;entryDx=0;entryDy=0;" parent="1" source="GETbyj5P_YYwZANEKlcK-50" target="GETbyj5P_YYwZANEKlcK-15" edge="1">
          <mxGeometry relative="1" as="geometry" />
        </mxCell>
        <mxCell id="GETbyj5P_YYwZANEKlcK-12" value="Step 1&lt;span style=&quot;color: rgba(0, 0, 0, 0); font-family: monospace; font-size: 0px; text-align: start; text-wrap-mode: nowrap;&quot;&gt;%3CmxGraphModel%3E%3Croot%3E%3CmxCell%20id%3D%220%22%2F%3E%3CmxCell%20id%3D%221%22%20parent%3D%220%22%2F%3E%3CmxCell%20id%3D%222%22%20value%3D%22Phase%202%22%20style%3D%22rounded%3D1%3BwhiteSpace%3Dwrap%3Bhtml%3D1%3B%22%20vertex%3D%221%22%20parent%3D%221%22%3E%3CmxGeometry%20x%3D%22680%22%20y%3D%22110%22%20width%3D%22120%22%20height%3D%2260%22%20as%3D%22geometry%22%2F%3E%3C%2FmxCell%3E%3C%2Froot%3E%3C%2FmxGraphModel%3E&lt;/span&gt;" style="rounded=1;whiteSpace=wrap;html=1;" parent="1" vertex="1">
          <mxGeometry x="480" y="-330" width="120" height="20" as="geometry" />
        </mxCell>
        <mxCell id="GETbyj5P_YYwZANEKlcK-14" value="Step 2&lt;span style=&quot;color: rgba(0, 0, 0, 0); font-family: monospace; font-size: 0px; text-align: start; text-wrap-mode: nowrap;&quot;&gt;%3CmxGraphModel%3E%3Croot%3E%3CmxCell%20id%3D%220%22%2F%3E%3CmxCell%20id%3D%221%22%20parent%3D%220%22%2F%3E%3CmxCell%20id%3D%222%22%20value%3D%22Step%201%26lt%3Bspan%20style%3D%26quot%3Bcolor%3A%20rgba(0%2C%200%2C%200%2C%200)%3B%20font-family%3A%20monospace%3B%20font-size%3A%200px%3B%20text-align%3A%20start%3B%20text-wrap-mode%3A%20nowrap%3B%26quot%3B%26gt%3B%253CmxGraphModel%253E%253Croot%253E%253CmxCell%2520id%253D%25220%2522%252F%253E%253CmxCell%2520id%253D%25221%2522%2520parent%253D%25220%2522%252F%253E%253CmxCell%2520id%253D%25222%2522%2520value%253D%2522Phase%25202%2522%2520style%253D%2522rounded%253D1%253BwhiteSpace%253Dwrap%253Bhtml%253D1%253B%2522%2520vertex%253D%25221%2522%2520parent%253D%25221%2522%253E%253CmxGeometry%2520x%253D%2522680%2522%2520y%253D%2522110%2522%2520width%253D%2522120%2522%2520height%253D%252260%2522%2520as%253D%2522geometry%2522%252F%253E%253C%252FmxCell%253E%253C%252Froot%253E%253C%252FmxGraphModel%253E%26lt%3B%2Fspan%26gt%3B%22%20style%3D%22rounded%3D1%3BwhiteSpace%3Dwrap%3Bhtml%3D1%3B%22%20vertex%3D%221%22%20parent%3D%221%22%3E%3CmxGeometry%20x%3D%22880%22%20y%3D%2240%22%20width%3D%22120%22%20height%3D%2260%22%20as%3D%22geometry%22%2F%3E%3C%2FmxCell%3E%3C%2Froot%3E%3C%2FmxGraphModel%3E&lt;/span&gt;" style="rounded=1;whiteSpace=wrap;html=1;" parent="1" vertex="1">
          <mxGeometry x="480" y="-310" width="120" height="20" as="geometry" />
        </mxCell>
        <mxCell id="GETbyj5P_YYwZANEKlcK-15" value="Step 3" style="rounded=1;whiteSpace=wrap;html=1;" parent="1" vertex="1">
          <mxGeometry x="480" y="-290" width="120" height="20" as="geometry" />
        </mxCell>
        <mxCell id="GETbyj5P_YYwZANEKlcK-50" value="Generate Steps" style="rounded=1;whiteSpace=wrap;html=1;" parent="1" vertex="1">
          <mxGeometry x="160" y="-314" width="120" height="28" as="geometry" />
        </mxCell>
        <mxCell id="cMDd89x_xVnOQtX1BIiP-1" value="Create context from code." style="rounded=1;whiteSpace=wrap;html=1;" parent="1" vertex="1">
          <mxGeometry x="580" y="-860" width="190" height="60" as="geometry" />
        </mxCell>
        <mxCell id="cMDd89x_xVnOQtX1BIiP-2" value="Suggest Feature/Edit" style="rounded=1;whiteSpace=wrap;html=1;" parent="1" vertex="1">
          <mxGeometry x="575" y="-930" width="200" height="60" as="geometry" />
        </mxCell>
        <mxCell id="cMDd89x_xVnOQtX1BIiP-3" value="Use available prediction API limit" style="rounded=1;whiteSpace=wrap;html=1;" parent="1" vertex="1">
          <mxGeometry x="445" y="-1060" width="190" height="60" as="geometry" />
        </mxCell>
        <mxCell id="xY59ZEsb-rLchHEWTIaU-1" value="Document Manager&lt;div&gt;&lt;br&gt;The system needs to be able to create documents and consume them for building completion contexts.&lt;/div&gt;" style="rounded=1;whiteSpace=wrap;html=1;" parent="1" vertex="1">
          <mxGeometry x="840" y="-930" width="240" height="110" as="geometry" />
        </mxCell>
        <mxCell id="4o9Aga6gmgFH_9fT-B03-1" value="Code Editing" style="rounded=1;whiteSpace=wrap;html=1;" parent="1" vertex="1">
          <mxGeometry x="440" y="-680" width="120" height="60" as="geometry" />
        </mxCell>
        <mxCell id="4o9Aga6gmgFH_9fT-B03-2" value="repositories" style="whiteSpace=wrap;html=1;" parent="1" vertex="1">
          <mxGeometry x="440" y="-580" width="120" height="20" as="geometry" />
        </mxCell>
        <mxCell id="4o9Aga6gmgFH_9fT-B03-3" style="edgeStyle=orthogonalEdgeStyle;rounded=0;orthogonalLoop=1;jettySize=auto;html=1;exitX=0.5;exitY=1;exitDx=0;exitDy=0;" parent="1" source="4o9Aga6gmgFH_9fT-B03-1" target="4o9Aga6gmgFH_9fT-B03-2" edge="1">
          <mxGeometry relative="1" as="geometry" />
        </mxCell>
        <mxCell id="4o9Aga6gmgFH_9fT-B03-4" value="splitters" style="whiteSpace=wrap;html=1;" parent="1" vertex="1">
          <mxGeometry x="440" y="-560" width="120" height="20" as="geometry" />
        </mxCell>
        <mxCell id="4o9Aga6gmgFH_9fT-B03-5" value="Test Driven" style="whiteSpace=wrap;html=1;" parent="1" vertex="1">
          <mxGeometry x="440" y="-540" width="120" height="20" as="geometry" />
        </mxCell>
        <mxCell id="4o9Aga6gmgFH_9fT-B03-9" value="" style="edgeStyle=orthogonalEdgeStyle;rounded=0;orthogonalLoop=1;jettySize=auto;html=1;" parent="1" source="4o9Aga6gmgFH_9fT-B03-7" target="4o9Aga6gmgFH_9fT-B03-8" edge="1">
          <mxGeometry relative="1" as="geometry" />
        </mxCell>
        <mxCell id="4o9Aga6gmgFH_9fT-B03-7" value="Propose Edit" style="whiteSpace=wrap;html=1;" parent="1" vertex="1">
          <mxGeometry x="620" y="-660" width="120" height="30" as="geometry" />
        </mxCell>
        <mxCell id="4o9Aga6gmgFH_9fT-B03-13" style="edgeStyle=orthogonalEdgeStyle;rounded=0;orthogonalLoop=1;jettySize=auto;html=1;exitX=0.5;exitY=1;exitDx=0;exitDy=0;entryX=0.5;entryY=0;entryDx=0;entryDy=0;" parent="1" source="4o9Aga6gmgFH_9fT-B03-8" target="4o9Aga6gmgFH_9fT-B03-10" edge="1">
          <mxGeometry relative="1" as="geometry" />
        </mxCell>
        <mxCell id="4o9Aga6gmgFH_9fT-B03-8" value="Create Edit Test" style="whiteSpace=wrap;html=1;" parent="1" vertex="1">
          <mxGeometry x="620" y="-610" width="120" height="30" as="geometry" />
        </mxCell>
        <mxCell id="4o9Aga6gmgFH_9fT-B03-15" style="edgeStyle=orthogonalEdgeStyle;rounded=0;orthogonalLoop=1;jettySize=auto;html=1;exitX=0.5;exitY=1;exitDx=0;exitDy=0;entryX=0.5;entryY=0;entryDx=0;entryDy=0;" parent="1" source="4o9Aga6gmgFH_9fT-B03-10" target="4o9Aga6gmgFH_9fT-B03-14" edge="1">
          <mxGeometry relative="1" as="geometry" />
        </mxCell>
        <mxCell id="4o9Aga6gmgFH_9fT-B03-10" value="Create Edit Main" style="whiteSpace=wrap;html=1;" parent="1" vertex="1">
          <mxGeometry x="620" y="-560" width="120" height="30" as="geometry" />
        </mxCell>
        <mxCell id="4o9Aga6gmgFH_9fT-B03-17" style="edgeStyle=orthogonalEdgeStyle;rounded=0;orthogonalLoop=1;jettySize=auto;html=1;exitX=0.5;exitY=1;exitDx=0;exitDy=0;entryX=0.5;entryY=0;entryDx=0;entryDy=0;" parent="1" source="4o9Aga6gmgFH_9fT-B03-14" target="4o9Aga6gmgFH_9fT-B03-16" edge="1">
          <mxGeometry relative="1" as="geometry" />
        </mxCell>
        <mxCell id="4o9Aga6gmgFH_9fT-B03-14" value="Run Test" style="whiteSpace=wrap;html=1;" parent="1" vertex="1">
          <mxGeometry x="620" y="-510" width="120" height="30" as="geometry" />
        </mxCell>
        <mxCell id="4o9Aga6gmgFH_9fT-B03-16" value="Evaluate" style="whiteSpace=wrap;html=1;" parent="1" vertex="1">
          <mxGeometry x="620" y="-455" width="120" height="30" as="geometry" />
        </mxCell>
        <mxCell id="4o9Aga6gmgFH_9fT-B03-18" value="Need a list of criteria for each test so that as a feature is added the criteria can be used a checklist." style="ellipse;shape=cloud;whiteSpace=wrap;html=1;" parent="1" vertex="1">
          <mxGeometry x="770" y="-630" width="210" height="140" as="geometry" />
        </mxCell>
        <mxCell id="VCqCBCBZ_VbBb2Snjpwb-1" value="Add Tool" style="rounded=1;whiteSpace=wrap;html=1;" parent="1" vertex="1">
          <mxGeometry x="400" y="-930" width="120" height="60" as="geometry" />
        </mxCell>
        <mxCell id="VCqCBCBZ_VbBb2Snjpwb-2" value="Allow the system to create tools in descendent processes" style="shape=document;whiteSpace=wrap;html=1;boundedLbl=1;" parent="1" vertex="1">
          <mxGeometry x="400" y="-860" width="120" height="90" as="geometry" />
        </mxCell>
        <mxCell id="VCqCBCBZ_VbBb2Snjpwb-3" value="data" style="ellipse;whiteSpace=wrap;html=1;" parent="1" vertex="1">
          <mxGeometry x="453" y="110" width="80" height="80" as="geometry" />
        </mxCell>
        <mxCell id="VCqCBCBZ_VbBb2Snjpwb-13" style="edgeStyle=orthogonalEdgeStyle;rounded=0;orthogonalLoop=1;jettySize=auto;html=1;exitX=0.5;exitY=1;exitDx=0;exitDy=0;entryX=0.5;entryY=0;entryDx=0;entryDy=0;" parent="1" source="VCqCBCBZ_VbBb2Snjpwb-18" target="VCqCBCBZ_VbBb2Snjpwb-6" edge="1">
          <mxGeometry relative="1" as="geometry" />
        </mxCell>
        <mxCell id="nzE7-ngNFehU8ziRlf7g-7" style="edgeStyle=orthogonalEdgeStyle;rounded=0;orthogonalLoop=1;jettySize=auto;html=1;exitX=0.5;exitY=1;exitDx=0;exitDy=0;entryX=0.5;entryY=0;entryDx=0;entryDy=0;" parent="1" source="VCqCBCBZ_VbBb2Snjpwb-5" target="VCqCBCBZ_VbBb2Snjpwb-18" edge="1">
          <mxGeometry relative="1" as="geometry" />
        </mxCell>
        <mxCell id="VCqCBCBZ_VbBb2Snjpwb-5" value="tool" style="rounded=1;whiteSpace=wrap;html=1;" parent="1" vertex="1">
          <mxGeometry x="433" y="607" width="120" height="60" as="geometry" />
        </mxCell>
        <mxCell id="VCqCBCBZ_VbBb2Snjpwb-7" style="edgeStyle=orthogonalEdgeStyle;rounded=0;orthogonalLoop=1;jettySize=auto;html=1;entryX=0.5;entryY=1;entryDx=0;entryDy=0;" parent="1" source="VCqCBCBZ_VbBb2Snjpwb-10" target="VCqCBCBZ_VbBb2Snjpwb-8" edge="1">
          <mxGeometry relative="1" as="geometry">
            <mxPoint x="440" y="447" as="targetPoint" />
          </mxGeometry>
        </mxCell>
        <mxCell id="VCqCBCBZ_VbBb2Snjpwb-29" style="edgeStyle=orthogonalEdgeStyle;rounded=0;orthogonalLoop=1;jettySize=auto;html=1;" parent="1" source="VCqCBCBZ_VbBb2Snjpwb-6" target="VCqCBCBZ_VbBb2Snjpwb-10" edge="1">
          <mxGeometry relative="1" as="geometry" />
        </mxCell>
        <mxCell id="VCqCBCBZ_VbBb2Snjpwb-32" style="edgeStyle=orthogonalEdgeStyle;rounded=0;orthogonalLoop=1;jettySize=auto;html=1;" parent="1" source="VCqCBCBZ_VbBb2Snjpwb-6" target="VCqCBCBZ_VbBb2Snjpwb-25" edge="1">
          <mxGeometry relative="1" as="geometry" />
        </mxCell>
        <mxCell id="VCqCBCBZ_VbBb2Snjpwb-6" value="eval" style="rounded=1;whiteSpace=wrap;html=1;" parent="1" vertex="1">
          <mxGeometry x="433" y="827" width="120" height="60" as="geometry" />
        </mxCell>
        <mxCell id="VCqCBCBZ_VbBb2Snjpwb-9" style="edgeStyle=orthogonalEdgeStyle;rounded=0;orthogonalLoop=1;jettySize=auto;html=1;" parent="1" source="VCqCBCBZ_VbBb2Snjpwb-8" target="VCqCBCBZ_VbBb2Snjpwb-5" edge="1">
          <mxGeometry relative="1" as="geometry">
            <mxPoint x="580" y="587" as="targetPoint" />
          </mxGeometry>
        </mxCell>
        <mxCell id="VCqCBCBZ_VbBb2Snjpwb-8" value="Revise" style="rounded=1;whiteSpace=wrap;html=1;" parent="1" vertex="1">
          <mxGeometry x="710" y="607" width="120" height="60" as="geometry" />
        </mxCell>
        <mxCell id="VCqCBCBZ_VbBb2Snjpwb-18" value="output" style="rounded=1;whiteSpace=wrap;html=1;" parent="1" vertex="1">
          <mxGeometry x="433" y="737" width="120" height="60" as="geometry" />
        </mxCell>
        <mxCell id="VCqCBCBZ_VbBb2Snjpwb-33" style="edgeStyle=orthogonalEdgeStyle;rounded=0;orthogonalLoop=1;jettySize=auto;html=1;exitX=0.5;exitY=0;exitDx=0;exitDy=0;" parent="1" source="VCqCBCBZ_VbBb2Snjpwb-25" target="VCqCBCBZ_VbBb2Snjpwb-3" edge="1">
          <mxGeometry relative="1" as="geometry">
            <mxPoint x="193" y="537" as="targetPoint" />
            <Array as="points">
              <mxPoint x="310" y="157" />
            </Array>
          </mxGeometry>
        </mxCell>
        <mxCell id="VCqCBCBZ_VbBb2Snjpwb-25" value="result" style="rounded=1;whiteSpace=wrap;html=1;" parent="1" vertex="1">
          <mxGeometry x="250" y="620" width="120" height="60" as="geometry" />
        </mxCell>
        <mxCell id="VCqCBCBZ_VbBb2Snjpwb-10" value="reflect" style="rounded=1;whiteSpace=wrap;html=1;" parent="1" vertex="1">
          <mxGeometry x="710" y="737" width="120" height="60" as="geometry" />
        </mxCell>
        <mxCell id="VCqCBCBZ_VbBb2Snjpwb-35" value="is a workflow more than a set of tools and the dependencies of their outputs?" style="text;html=1;align=center;verticalAlign=middle;resizable=0;points=[];autosize=1;strokeColor=none;fillColor=none;" parent="1" vertex="1">
          <mxGeometry x="640" y="297" width="430" height="30" as="geometry" />
        </mxCell>
        <mxCell id="nzE7-ngNFehU8ziRlf7g-10" style="edgeStyle=orthogonalEdgeStyle;rounded=0;orthogonalLoop=1;jettySize=auto;html=1;" parent="1" source="nzE7-ngNFehU8ziRlf7g-16" target="VCqCBCBZ_VbBb2Snjpwb-42" edge="1">
          <mxGeometry relative="1" as="geometry">
            <Array as="points" />
          </mxGeometry>
        </mxCell>
        <mxCell id="VCqCBCBZ_VbBb2Snjpwb-39" value="workflow or tool" style="rhombus;whiteSpace=wrap;html=1;" parent="1" vertex="1">
          <mxGeometry x="433" y="477" width="120" height="80" as="geometry" />
        </mxCell>
        <mxCell id="nzE7-ngNFehU8ziRlf7g-4" value="" style="edgeStyle=orthogonalEdgeStyle;rounded=0;orthogonalLoop=1;jettySize=auto;html=1;exitX=0.5;exitY=1;exitDx=0;exitDy=0;" parent="1" source="VCqCBCBZ_VbBb2Snjpwb-39" target="VCqCBCBZ_VbBb2Snjpwb-5" edge="1">
          <mxGeometry relative="1" as="geometry">
            <mxPoint x="533" y="527" as="sourcePoint" />
            <mxPoint x="533" y="547" as="targetPoint" />
          </mxGeometry>
        </mxCell>
        <mxCell id="nzE7-ngNFehU8ziRlf7g-5" value="" style="edgeStyle=orthogonalEdgeStyle;rounded=0;orthogonalLoop=1;jettySize=auto;html=1;exitX=0.5;exitY=1;exitDx=0;exitDy=0;" parent="1" source="VCqCBCBZ_VbBb2Snjpwb-3" target="VCqCBCBZ_VbBb2Snjpwb-23" edge="1">
          <mxGeometry relative="1" as="geometry">
            <mxPoint x="533" y="197" as="sourcePoint" />
            <mxPoint x="533" y="322" as="targetPoint" />
          </mxGeometry>
        </mxCell>
        <mxCell id="VCqCBCBZ_VbBb2Snjpwb-23" value="plan" style="rounded=1;whiteSpace=wrap;html=1;" parent="1" vertex="1">
          <mxGeometry x="433" y="222" width="120" height="60" as="geometry" />
        </mxCell>
        <mxCell id="nzE7-ngNFehU8ziRlf7g-9" value="&lt;span style=&quot;background-color: rgb(255, 255, 255);&quot;&gt;Based on the available tools, do we need to make multiple tool calls or do we have a tool that should be able to respond to the event correctly?&lt;/span&gt;" style="rounded=0;whiteSpace=wrap;html=1;shadow=1;" parent="1" vertex="1">
          <mxGeometry x="625" y="427" width="170" height="80" as="geometry" />
        </mxCell>
        <mxCell id="nzE7-ngNFehU8ziRlf7g-12" value="" style="edgeStyle=orthogonalEdgeStyle;rounded=0;orthogonalLoop=1;jettySize=auto;html=1;exitX=0.5;exitY=1;exitDx=0;exitDy=0;" parent="1" source="VCqCBCBZ_VbBb2Snjpwb-23" target="VCqCBCBZ_VbBb2Snjpwb-42" edge="1">
          <mxGeometry relative="1" as="geometry">
            <mxPoint x="533" y="327" as="sourcePoint" />
            <mxPoint x="533" y="427" as="targetPoint" />
          </mxGeometry>
        </mxCell>
        <mxCell id="nzE7-ngNFehU8ziRlf7g-15" style="edgeStyle=orthogonalEdgeStyle;rounded=0;orthogonalLoop=1;jettySize=auto;html=1;exitX=0.5;exitY=1;exitDx=0;exitDy=0;" parent="1" source="VCqCBCBZ_VbBb2Snjpwb-42" target="VCqCBCBZ_VbBb2Snjpwb-39" edge="1">
          <mxGeometry relative="1" as="geometry" />
        </mxCell>
        <mxCell id="VCqCBCBZ_VbBb2Snjpwb-42" value="step" style="rounded=1;whiteSpace=wrap;html=1;" parent="1" vertex="1">
          <mxGeometry x="433" y="347" width="120" height="60" as="geometry" />
        </mxCell>
        <mxCell id="nzE7-ngNFehU8ziRlf7g-17" value="" style="edgeStyle=orthogonalEdgeStyle;rounded=0;orthogonalLoop=1;jettySize=auto;html=1;" parent="1" source="VCqCBCBZ_VbBb2Snjpwb-39" target="nzE7-ngNFehU8ziRlf7g-16" edge="1">
          <mxGeometry relative="1" as="geometry">
            <mxPoint x="600" y="517" as="sourcePoint" />
            <mxPoint x="600" y="377" as="targetPoint" />
          </mxGeometry>
        </mxCell>
        <mxCell id="nzE7-ngNFehU8ziRlf7g-16" value="workflow" style="rounded=1;whiteSpace=wrap;html=1;" parent="1" vertex="1">
          <mxGeometry x="740" y="347" width="120" height="60" as="geometry" />
        </mxCell>
        <mxCell id="nzE7-ngNFehU8ziRlf7g-19" value="Container" style="swimlane;snapToPoint=0;movableLabel=0;autosize=0;fixedWidth=0;resizeWidth=1;resizeHeight=1;treeFolding=0;treeMoving=0;moveCells=0;resizable=1;expand=0;collapsible=1;backgroundOutline=0;movable=1;autosizeGrid=1;enumerate=0;noLabel=0;portConstraintRotation=0;fixDash=0;container=1;" parent="1" vertex="1">
          <mxGeometry x="40" y="-930" width="280" height="20" as="geometry">
            <mxRectangle x="130" y="-350" width="280" height="20" as="alternateBounds" />
          </mxGeometry>
        </mxCell>
        <mxCell id="GETbyj5P_YYwZANEKlcK-43" value="IteratePhraseList" style="swimlane;whiteSpace=wrap;html=1;swimlaneFillColor=default;shadow=1;part=1;autosize=1;autosizeGrid=0;" parent="nzE7-ngNFehU8ziRlf7g-19" vertex="1">
          <mxGeometry x="10" y="121" width="260" height="329" as="geometry">
            <mxRectangle x="10" y="121" width="260" height="20" as="alternateBounds" />
          </mxGeometry>
        </mxCell>
        <mxCell id="GETbyj5P_YYwZANEKlcK-44" value="Iterate over the list of phrases.&lt;br&gt;&lt;br&gt;Example:&lt;br&gt;Create a book about cats.&lt;br&gt;Create an outline then iterate over the outline to so specific sections. Feedback over the output against the current Input to evaluate if the solution is tracking to the problem, and if the plan needs to be updated to reflect new information." style="whiteSpace=wrap;html=1;noLabel=0;labelPadding=0;overflow=visible;absoluteArcSize=0;imageAspect=1;portConstraintRotation=0;snapToPoint=1;part=1;backgroundOutline=1;autosize=1;autosizeGrid=1;fixedWidth=1;resizeWidth=1;treeFolding=0;treeMoving=0;enumerate=0;comic=0;spacing=4;" parent="GETbyj5P_YYwZANEKlcK-43" vertex="1">
          <mxGeometry x="7.5" y="35" width="242.5" height="160" as="geometry" />
        </mxCell>
        <mxCell id="cMDd89x_xVnOQtX1BIiP-4" style="edgeStyle=orthogonalEdgeStyle;rounded=0;orthogonalLoop=1;jettySize=auto;html=1;exitX=1;exitY=0.5;exitDx=0;exitDy=0;entryX=0;entryY=0.5;entryDx=0;entryDy=0;" parent="GETbyj5P_YYwZANEKlcK-43" source="GETbyj5P_YYwZANEKlcK-24" target="JYHLU_MuSt27tHj3S0xl-2" edge="1">
          <mxGeometry relative="1" as="geometry" />
        </mxCell>
        <mxCell id="GETbyj5P_YYwZANEKlcK-24" value="Tool Call" style="rounded=1;whiteSpace=wrap;html=1;" parent="GETbyj5P_YYwZANEKlcK-43" vertex="1">
          <mxGeometry x="10" y="214" width="65" height="20" as="geometry" />
        </mxCell>
        <mxCell id="GETbyj5P_YYwZANEKlcK-56" value="Return&lt;br&gt;Success" style="whiteSpace=wrap;html=1;" parent="GETbyj5P_YYwZANEKlcK-43" vertex="1">
          <mxGeometry x="170" y="274" width="60" height="35" as="geometry" />
        </mxCell>
        <mxCell id="GETbyj5P_YYwZANEKlcK-55" value="Return&lt;br&gt;Failure" style="whiteSpace=wrap;html=1;" parent="GETbyj5P_YYwZANEKlcK-43" vertex="1">
          <mxGeometry x="110" y="274" width="60" height="35" as="geometry" />
        </mxCell>
        <mxCell id="JYHLU_MuSt27tHj3S0xl-1" value="evaluate" style="whiteSpace=wrap;html=1;" parent="GETbyj5P_YYwZANEKlcK-43" vertex="1">
          <mxGeometry x="110" y="239" width="120" height="30" as="geometry" />
        </mxCell>
        <mxCell id="JYHLU_MuSt27tHj3S0xl-2" value="execute" style="whiteSpace=wrap;html=1;" parent="GETbyj5P_YYwZANEKlcK-43" vertex="1">
          <mxGeometry x="110" y="209" width="120" height="30" as="geometry" />
        </mxCell>
        <mxCell id="GETbyj5P_YYwZANEKlcK-34" value="ExtractPhraseList" style="swimlane;whiteSpace=wrap;html=1;rounded=0;shadow=1;swimlaneLine=1;glass=0;noLabel=0;strokeColor=default;horizontal=1;fixDash=0;container=1;metaEdit=0;backgroundOutline=0;autosize=1;treeFolding=0;fixedWidth=0;autosizeGrid=1;separatorColor=#242424;swimlaneFillColor=default;perimeter=rectanglePerimeter;snapToPoint=0;portConstraintRotation=0;gradientColor=none;perimeterSpacing=0;swimlaneHead=1;editable=1;movable=1;resizable=1;rotatable=1;deletable=1;locked=0;connectable=1;" parent="nzE7-ngNFehU8ziRlf7g-19" vertex="1" collapsed="1">
          <mxGeometry x="10" y="90" width="260" height="20" as="geometry">
            <mxRectangle x="10" y="90" width="260" height="160" as="alternateBounds" />
          </mxGeometry>
        </mxCell>
        <mxCell id="GETbyj5P_YYwZANEKlcK-35" value="Extract the list of phrases&lt;br&gt;&lt;br&gt;Example:&lt;br&gt;Isolate the steps for creating the book to be send for further analysis." style="whiteSpace=wrap;html=1;" parent="GETbyj5P_YYwZANEKlcK-34" vertex="1">
          <mxGeometry x="5" y="63" width="245" height="87" as="geometry" />
        </mxCell>
        <mxCell id="GETbyj5P_YYwZANEKlcK-59" value="Extract the Phrase List from the returned PhraseListSource." style="whiteSpace=wrap;html=1;align=left;textShadow=1;" parent="GETbyj5P_YYwZANEKlcK-34" vertex="1">
          <mxGeometry x="7.5" y="30" width="242.5" height="30" as="geometry" />
        </mxCell>
        <mxCell id="GETbyj5P_YYwZANEKlcK-40" value="GeneratePhraseListSource" style="swimlane;whiteSpace=wrap;html=1;shadow=1;" parent="nzE7-ngNFehU8ziRlf7g-19" vertex="1" collapsed="1">
          <mxGeometry x="10" y="60" width="260" height="20" as="geometry">
            <mxRectangle x="10" y="60" width="260" height="200" as="alternateBounds" />
          </mxGeometry>
        </mxCell>
        <mxCell id="GETbyj5P_YYwZANEKlcK-41" value="Generate a list of phrases&lt;br&gt;&lt;br&gt;Example:&lt;br&gt;Generate a Set of Steps for writing the book." style="whiteSpace=wrap;html=1;" parent="GETbyj5P_YYwZANEKlcK-40" vertex="1">
          <mxGeometry y="23" width="260" height="87" as="geometry" />
        </mxCell>
        <mxCell id="GETbyj5P_YYwZANEKlcK-57" value="Generate a PhraseListSource&amp;nbsp;for the ValidMultiPhraseInput. This is a single output that profiles the contours of the PhraseListGoal as actionable assertions." style="whiteSpace=wrap;html=1;align=left;textShadow=1;" parent="GETbyj5P_YYwZANEKlcK-40" vertex="1">
          <mxGeometry y="110" width="260" height="90" as="geometry" />
        </mxCell>
        <mxCell id="GETbyj5P_YYwZANEKlcK-48" value="ValidMultiPhraseInput" style="swimlane;whiteSpace=wrap;html=1;shadow=1;swimlaneFillColor=default;" parent="nzE7-ngNFehU8ziRlf7g-19" vertex="1" collapsed="1">
          <mxGeometry x="10" y="30" width="260" height="20" as="geometry">
            <mxRectangle x="10" y="30" width="260" height="190" as="alternateBounds" />
          </mxGeometry>
        </mxCell>
        <mxCell id="GETbyj5P_YYwZANEKlcK-49" value="Evaluate input for parsing&lt;br&gt;&lt;br&gt;Example:&lt;br&gt;Create a book about cats.&lt;div&gt;&lt;br&gt;Is this a valid input for parsing?&amp;nbsp;&lt;br&gt;Yes, creating a book about cats requires several steps.&lt;/div&gt;" style="whiteSpace=wrap;html=1;" parent="GETbyj5P_YYwZANEKlcK-48" vertex="1">
          <mxGeometry x="10" y="33" width="240" height="147" as="geometry" />
        </mxCell>
      </root>
    </mxGraphModel>
  </diagram>
</mxfile>
